<?xml version="1.0" encoding="UTF-8" standalone="no"?>
<svg width="512px" height="512px" viewBox="0 0 512 512" version="1.1" xmlns="http://www.w3.org/2000/svg" xmlns:xlink="http://www.w3.org/1999/xlink" xmlns:sketch="http://www.bohemiancoding.com/sketch/ns">
    <!-- Generator: Sketch 3.3.1 (12002) - http://www.bohemiancoding.com/sketch -->
    <title>qq</title>
    <desc>Created with Sketch.</desc>
    <defs></defs>
    <g id="Page-1" stroke="none" stroke-width="1" fill="none" fill-rule="evenodd" sketch:type="MSPage">
        <g id="qq" sketch:type="MSArtboardGroup" fill="#000000">
            <path d="M92.9206726,205.75 C90.6456726,211.758333 93.9790059,215.566667 92.9206726,238.458333 C92.6373392,244.616667 66.0790059,272.491667 55.5456726,301.441667 C45.0873392,330.158333 43.6540059,360.158333 59.7873392,371.95 C75.9290059,383.741667 90.9540059,332.708333 92.9206726,340.125 C93.7790059,343.366667 94.8456726,346.741667 96.1290059,350.2 C101.295673,364.116667 109.970673,379.516667 122.545673,393.908333 C125.095673,396.833333 106.987339,402.216667 96.1290059,420.683333 C85.2706726,439.141667 99.2456726,472.725 153.229006,472.725 C222.887339,472.725 238.462339,448.233333 239.879006,448.341667 C245.062339,448.733333 245.420673,448.341667 250.920673,448.341667 C257.645673,448.341667 254.862339,448.883333 261.112339,448.341667 C264.487339,448.05 298.345673,477.65 345.212339,472.725 C425.062339,464.325 412.854006,437.566667 406.587339,420.683333 C400.045673,403.05 376.912339,394.791667 377.929006,393.658333 C397.062339,372.525 400.087339,359.541667 406.587339,340.125 C409.254006,332.15 427.787339,384.041667 442.054006,371.95 C447.995673,366.916667 459.887339,345.933333 447.995673,301.441667 C436.104006,256.95 413.112339,246.8 413.612339,238.458333 C414.654006,221.1 414.045673,208.9 413.170673,205.75 C408.920673,190.45 400.045673,193.825 400.045673,190.45 C400.045673,102.383333 333.820673,31 252.129006,31 C170.437339,31 104.220673,102.383333 104.220673,190.45 C104.220673,197.441667 98.0123392,192.275 92.9206726,205.75" id="Imported-Layers" sketch:type="MSShapeGroup"></path>
        </g>
    </g>
</svg>