<?xml version="1.0" encoding="UTF-8" standalone="no"?>
<svg width="512px" height="512px" viewBox="0 0 512 512" version="1.1" xmlns="http://www.w3.org/2000/svg" xmlns:xlink="http://www.w3.org/1999/xlink" xmlns:sketch="http://www.bohemiancoding.com/sketch/ns">
    <!-- Generator: Sketch 3.3.1 (12002) - http://www.bohemiancoding.com/sketch -->
    <title>wechat</title>
    <desc>Created with Sketch.</desc>
    <defs></defs>
    <g id="Page-1" stroke="none" stroke-width="1" fill="none" fill-rule="evenodd" sketch:type="MSPage">
        <g id="wechat" sketch:type="MSArtboardGroup" fill="#000000">
            <path d="M385.285106,278.587234 C393.404255,278.587234 399.991489,271.940426 399.991489,263.744681 C399.991489,255.548936 393.404255,248.902128 385.285106,248.902128 C377.165957,248.902128 370.578723,255.548936 370.578723,263.744681 C370.578723,271.940426 377.165957,278.587234 385.285106,278.587234 L385.285106,278.587234 Z M297.06383,278.587234 C305.182979,278.587234 311.770213,271.940426 311.770213,263.744681 C311.770213,255.548936 305.182979,248.902128 297.06383,248.902128 C288.944681,248.902128 282.357447,255.548936 282.357447,263.744681 C282.357447,271.940426 288.944681,278.587234 297.06383,278.587234 L297.06383,278.587234 Z M245.6,174.714894 C257.787234,174.714894 267.659574,164.748936 267.659574,152.451064 C267.659574,140.161702 257.787234,130.195745 245.6,130.195745 C233.421277,130.195745 223.548936,140.161702 223.548936,152.451064 C223.548936,164.748936 233.421277,174.714894 245.6,174.714894 L245.6,174.714894 Z M127.974468,174.714894 C140.161702,174.714894 150.034043,164.748936 150.034043,152.451064 C150.034043,140.161702 140.161702,130.195745 127.974468,130.195745 C115.795745,130.195745 105.923404,140.161702 105.923404,152.451064 C105.923404,164.748936 115.795745,174.714894 127.974468,174.714894 L127.974468,174.714894 Z M209.668085,320.629787 C202.229787,321.668085 194.578723,322.212766 186.791489,322.212766 C167.285106,322.212766 148.723404,318.825532 131.86383,312.714894 C130.178723,312.102128 124.187234,310.280851 120.944681,312.714894 C113.651064,318.195745 103.87234,329.557447 103.87234,329.557447 C103.87234,329.557447 107.446809,321.276596 108.646809,309.2 C109.2,303.668085 100.851064,299.804255 99.1829787,298.66383 C67.4212766,276.987234 47.106383,241.165957 47.106383,203.940426 C47.106383,138.629787 109.642553,85.6765957 186.791489,85.6765957 C258.817021,85.6765957 318.119149,131.838298 325.659574,191.123404 C259.395745,200.357447 208.842553,249.046809 208.842553,307.719149 C208.842553,312.076596 209.123404,316.391489 209.668085,320.629787 L209.668085,320.629787 Z M217.404255,348.52766 C207.47234,350.110638 197.242553,350.93617 186.791489,350.93617 C165.931915,350.93617 145.948936,347.642553 127.506383,341.625532 C118.221277,338.587234 84.3234043,374.417021 75.906383,370.085106 C70.8851064,367.497872 91.0468085,325.140426 86.3744681,322.13617 C44.7148936,295.276596 17.7021277,252.119149 17.7021277,203.46383 C17.7021277,122.025532 93.4042553,56 186.791489,56 C274.842553,56 347.174468,114.697872 355.148936,189.676596 C429.217021,192.604255 488.212766,244.331915 488.212766,307.719149 C488.212766,347.080851 465.455319,381.940426 430.476596,403.421277 C423.889362,407.46383 444.740426,441.565957 437.353191,444.604255 C432.8,446.476596 400.229787,417.608511 395.421277,419.055319 C380.765957,423.480851 364.978723,425.880851 348.52766,425.880851 C288.340426,425.880851 237.038298,393.676596 217.404255,348.52766 L217.404255,348.52766 Z" id="Imported-Layers" sketch:type="MSShapeGroup"></path>
        </g>
    </g>
</svg>