<?xml version="1.0" encoding="UTF-8" standalone="no"?>
<svg width="512px" height="512px" viewBox="0 0 512 512" version="1.1" xmlns="http://www.w3.org/2000/svg" xmlns:xlink="http://www.w3.org/1999/xlink" xmlns:sketch="http://www.bohemiancoding.com/sketch/ns">
    <!-- Generator: Sketch 3.3.1 (12002) - http://www.bohemiancoding.com/sketch -->
    <title>weibo</title>
    <desc>Created with Sketch.</desc>
    <defs></defs>
    <g id="Page-1" stroke="none" stroke-width="1" fill="none" fill-rule="evenodd" sketch:type="MSPage">
        <g id="weibo" sketch:type="MSArtboardGroup" fill="#000000">
            <g id="Imported-Layers" sketch:type="MSLayerGroup" transform="translate(31.000000, 72.666667)">
                <path d="M322.916667,170.933333 C322.916667,167.066667 359.683333,132.275 322.916667,110.633333 C286.15,88.9833333 218.9,121.9 220.916667,118.358333 C249.841667,67.8333333 208.508333,51.8833333 187.433333,51.8833333 C137.191667,51.8833333 5.85833333,163.791667 5.85833333,234.675 C5.85833333,305.558333 93.55,363.016667 201.725,363.016667 C309.9,363.016667 396.75,305.558333 396.75,234.675 C396.75,174.8 322.916667,174.8 322.916667,170.933333 L322.916667,170.933333 Z M207.016667,323.7 C137.908333,333.416667 76.6833333,304.3 70.275,258.683333 C63.8583333,213.058333 114.683333,168.2 183.791667,158.483333 C252.908333,148.766667 314.125,177.883333 320.541667,223.508333 C326.958333,269.125 276.133333,313.991667 207.016667,323.7 L207.016667,323.7 Z" id="Fill-1" sketch:type="MSShapeGroup"></path>
                <path d="M413.491667,37.9666667 C371.633333,-2.23333333 311.933333,3.38333333 311.933333,3.38333333 C304.375,3.54166667 300,9.79166667 300,17.4166667 L300,24.2083333 C300,31.8083333 304.35,37.6083333 312.125,37.475 C312.125,37.475 370.225,31.2166667 395.341667,67.8333333 C420.458333,104.45 409.166667,151.741667 409.166667,151.741667 C408.016667,159.241667 412.783333,166.666667 420.458333,166.666667 L426.316667,166.666667 C433.95,166.666667 441,159.258333 441.825,151.691667 C441.825,151.691667 455.35,78.1666667 413.491667,37.9666667" id="Fill-2" sketch:type="MSShapeGroup"></path>
                <path d="M364.816667,150 L373.116667,150 C378.183333,150 383.091667,144.9 383.916667,139.791667 C383.916667,139.791667 393.7,101.15 370.866667,80.275 C348.033333,59.4 317.8,66.7333333 317.8,66.7333333 C312.8,67.5 308.333333,71.9583333 308.333333,77.0083333 L308.333333,80.5833333 C308.333333,85.6583333 312.791667,89.4583333 318.025,89.3 C318.025,89.3 343.266667,85.9 355.45,100.583333 C367.625,115.275 358.191667,140.158333 358.191667,140.158333 C356.725,144.966667 359.816667,150 364.816667,150" id="Fill-3" sketch:type="MSShapeGroup"></path>
                <path d="M169.766667,185.291667 C128.658333,193.283333 100.825,227.958333 107.583333,262.75 C114.35,297.541667 153.15,319.266667 194.25,311.275 C235.358333,303.283333 263.2,268.6 256.433333,233.816667 C249.675,199.025 210.875,177.3 169.766667,185.291667 L169.766667,185.291667 Z M166.391667,276.783333 C153.741667,282.683333 139.85,279.658333 135.35,270.016667 C130.858333,260.383333 137.475,247.791667 150.125,241.891667 C162.775,235.991667 176.675,239.016667 181.166667,248.658333 C185.658333,258.291667 179.05,270.883333 166.391667,276.783333 L166.391667,276.783333 Z M195.4,247.508333 C188.425,247.508333 182.775,241.766667 182.775,234.675 C182.775,227.591667 188.425,221.841667 195.4,221.841667 C202.383333,221.841667 208.05,227.591667 208.05,234.675 C208.05,241.766667 202.383333,247.508333 195.4,247.508333 L195.4,247.508333 Z" id="Fill-4" sketch:type="MSShapeGroup"></path>
            </g>
        </g>
    </g>
</svg>